<svg xmlns="http://www.w3.org/2000/svg" xmlns:xlink="http://www.w3.org/1999/xlink" viewBox="0 0 189.15 63.3"><defs><style>.cls-1{fill:none;}.cls-2{clip-path:url(#clip-path);}.cls-3{fill:#231f20;}</style><clipPath id="clip-path"><rect class="cls-1" width="189.15" height="63.3"/></clipPath></defs><title>Asset 1</title><g id="Layer_2" data-name="Layer 2"><g id="Layer_1-2" data-name="Layer 1"><g class="cls-2"><path class="cls-3" d="M189.15.3H169.87V2.21c8,0,8.11,2.48,6.58,6.78l-16.13,48.1L142.66.3h-9L115.93,57.09,100,9c-1.43-4.3-1.33-6.78,6.68-6.78V.3H82.33l.26,2c4.77,0,6.9,2.39,8.33,6.69L109.06,63.3h9L135.69,6.6l17.57,56.7h9L180.46,9c1.53-4.39,3.91-6.78,8.69-6.78Z"/><path class="cls-3" d="M82.59,2.3V.3L76,0c-3,.1-7.86,1.15-11.8,9.59L41.62,58.89,18.22,9.59C13.91.58,11.7,0,5.75,0H0V1.92c4,0,4.8,2.68,4.8,7.29V54.09C4.8,58.7,4,61.38,0,61.38V63.3H13.43V61.38c-4,0-4.8-2.68-4.8-7.29V9.59L34.24,63.3h9.59L68.29,9.59v44.5c0,4.61-.77,7.29-4.8,7.29V63.3H81.72V61.38c-4,0-4.8-2.68-4.8-7.29V9.21c0-4.61,1.67-6.91,5.67-6.91"/></g></g></g></svg>
